# xmcd
# 
# Track frame offsets:
#     150
#     18271
#     33568
#     56057
# 
# Disc length: 1063
# 
# Revision: 1
# Processed by: cddbd v1.5.2PL0 Copyright (c) Steve Scherf et al.
# Submitted via: BonkEnc v1.0.8
# 
DISCID=2c042504
DTITLE=Mad Sax - MadSax vol1
DYEAR=2006
DGENRE=Instrumental
TTITLE0=Latinal
TTITLE1=Mad tango
TTITLE2=Detente
TTITLE3=Sur quel pied danser ?
EXTD=
EXTT0=
EXTT1=
EXTT2=
EXTT3=
PLAYORDER=
